HIERARCHY
ROOT Bone
{
	OFFSET 0.000000 0.000000 0.000000
	CHANNELS 6 Xposition Yposition Zposition Xrotation Yrotation Zrotation
	JOINT Bone.001
	{
		OFFSET 4.000000 0.000000 0.000000
		CHANNELS 6 Xposition Yposition Zposition Xrotation Yrotation Zrotation
		JOINT Bone.002
		{
			OFFSET 4.000000 0.000000 0.000000
			CHANNELS 6 Xposition Yposition Zposition Xrotation Yrotation Zrotation
			JOINT Bone.003
			{
				OFFSET 4.000000 0.000000 0.000000
				CHANNELS 6 Xposition Yposition Zposition Xrotation Yrotation Zrotation
				JOINT Bone.004
				{
					OFFSET 4.000000 0.000000 0.000000
					CHANNELS 6 Xposition Yposition Zposition Xrotation Yrotation Zrotation
					JOINT Bone.005
					{
						OFFSET 4.000000 0.000000 0.000000
						CHANNELS 6 Xposition Yposition Zposition Xrotation Yrotation Zrotation
						JOINT Bone.006
						{
							OFFSET 4.000000 0.000000 0.000000
							CHANNELS 6 Xposition Yposition Zposition Xrotation Yrotation Zrotation
							JOINT Bone.007
							{
								OFFSET 4.000000 0.000000 0.000000
								CHANNELS 6 Xposition Yposition Zposition Xrotation Yrotation Zrotation
								JOINT Bone.008
								{
									OFFSET 4.000000 0.000000 0.000000
									CHANNELS 6 Xposition Yposition Zposition Xrotation Yrotation Zrotation
									JOINT Bone.009
									{
										OFFSET 4.000000 0.000000 0.000000
										CHANNELS 6 Xposition Yposition Zposition Xrotation Yrotation Zrotation
										JOINT Bone.010
										{
											OFFSET 4.000000 0.000000 0.000000
											CHANNELS 3 Xrotation Yrotation Zrotation
											End Site
											{
												OFFSET 4.000000 0.000000 0.000000
											}
										}
									}
								}
							}
						}
					}
				}
			}
		}
	}
}
MOTION
Frames: 8
Frame Time: 0.041667
0.000000 0.000000 0.000000 -0.007456 0.019997 0.121513 4.000001 0.000000 -0.000000 -0.002458 0.014579 0.087699 4.000002 -0.000000 0.000000 -0.013465 0.025282 0.151816 4.000001 0.000000 -0.000000 -0.002588 0.024985 0.150168 4.000000 -0.000000 -0.000000 -0.000159 0.001756 0.010565 3.999998 -0.000000 -0.000000 0.000202 -0.000649 -0.004013 3.999996 0.000000 0.000000 0.005218 -0.014850 -0.089192 3.999994 0.000000 -0.000000 0.002891 -0.006998 -0.042001 4.000000 -0.000000 0.000000 0.000174 -0.001698 -0.010209 4.000000 -0.000000 -0.000000 0.000814 -0.002606 -0.015673 0.000000 0.000000 -0.000000 
0.000000 0.000000 0.000000 -0.029055 0.077191 0.469405 4.000001 0.000000 -0.000000 -0.009617 0.056276 0.338744 4.000002 -0.000000 0.000000 -0.052390 0.097468 0.586563 4.000000 0.000000 -0.000000 -0.010360 0.096516 0.580164 4.000000 -0.000000 -0.000000 -0.000615 0.006798 0.040801 3.999998 -0.000000 -0.000000 0.000948 -0.003108 -0.018845 3.999998 0.000000 0.000000 0.020237 -0.058016 -0.348121 3.999996 0.000000 -0.000000 0.011375 -0.027587 -0.165708 3.999996 -0.000000 0.000000 0.000738 -0.007230 -0.043486 3.999992 -0.000000 -0.000000 0.003264 -0.010467 -0.062908 0.000000 0.000000 -0.000000 
0.000000 0.000000 0.000000 -0.063839 0.167238 1.018877 4.000001 0.000000 -0.000000 -0.021292 0.122026 0.735095 4.000003 -0.000000 0.000000 -0.114994 0.210913 1.273433 3.999999 0.000000 -0.000000 -0.023730 0.209351 1.259431 4.000000 -0.000000 0.000000 -0.001340 0.014729 0.088524 3.999998 -0.000000 -0.000000 0.002449 -0.008008 -0.048684 3.999996 0.000000 0.000000 0.043944 -0.127464 -0.763871 3.999994 0.000000 -0.000000 0.025132 -0.061267 -0.367680 3.999998 -0.000000 0.000000 0.001750 -0.017272 -0.103807 3.999992 0.000000 -0.000000 0.007353 -0.023644 -0.142032 -0.000000 0.000000 -0.000000 
0.000000 0.000000 0.000000 -0.111146 0.285708 1.745101 4.000001 0.000000 -0.000000 -0.037413 0.208773 1.258744 4.000002 -0.000000 0.000000 -0.199845 0.359727 2.181774 4.000000 0.000000 0.000000 -0.043458 0.358289 2.157540 4.000000 -0.000000 -0.000000 -0.002308 0.025194 0.151548 3.999998 -0.000000 0.000000 0.004910 -0.016073 -0.097719 3.999992 0.000000 0.000000 0.075065 -0.221206 -1.323565 3.999998 0.000000 -0.000000 0.043793 -0.107501 -0.644477 4.000000 -0.000000 0.000000 0.003265 -0.032477 -0.195153 3.999996 0.000000 -0.000000 0.013075 -0.042201 -0.253371 0.000000 0.000000 0.000000 
0.000000 0.000000 0.000000 -0.170348 0.428135 2.623347 4.000001 0.000000 -0.000000 -0.057953 0.313434 1.891671 4.000002 0.000000 0.000000 -0.305626 0.537927 3.280891 4.000000 -0.000000 0.000000 -0.070440 0.538006 3.244012 3.999999 -0.000000 -0.000000 -0.003493 0.037849 0.227687 3.999998 -0.000000 0.000000 0.008531 -0.028024 -0.170142 3.999996 0.000000 0.000000 0.112213 -0.337357 -2.014344 4.000000 -0.000000 0.000000 0.066951 -0.165783 -0.992662 4.000000 0.000001 -0.000000 0.005321 -0.053513 -0.321505 3.999996 -0.000001 -0.000000 0.020418 -0.066177 -0.397255 -0.000000 0.000000 -0.000000 
0.000000 0.000000 0.000000 -0.240780 0.590040 3.628701 4.000001 0.000000 -0.000000 -0.082869 0.432862 2.615824 4.000002 -0.000000 0.000000 -0.430929 0.739430 4.539908 4.000000 0.000000 -0.000000 -0.105515 0.743128 4.488210 4.000000 -0.000000 -0.000000 -0.004868 0.052311 0.314756 4.000000 0.000000 0.000000 0.013506 -0.044494 -0.270143 3.999996 0.000001 0.000000 0.153939 -0.473944 -2.823331 3.999994 0.000001 -0.000000 0.094166 -0.235637 -1.408807 4.000000 -0.000000 -0.000000 0.007940 -0.081058 -0.486842 3.999996 -0.000000 -0.000000 0.029355 -0.095682 -0.574007 0.000000 -0.000000 -0.000000 
0.000000 0.000000 0.000000 -0.321620 0.766855 4.736124 4.000001 0.000000 -0.000000 -0.112042 0.563954 3.413090 4.000002 0.000000 0.000000 -0.574087 0.958208 5.927668 3.999999 -0.000000 -0.000000 -0.149306 0.968157 5.859220 4.000000 -0.000000 0.000000 -0.006407 0.068228 0.410570 3.999998 0.000000 0.000000 0.020019 -0.066222 -0.401922 3.999996 0.000001 0.000000 0.198775 -0.629012 -3.737610 3.999996 0.000001 -0.000000 0.124970 -0.316572 -1.889474 3.999998 0.000000 0.000000 0.011126 -0.115764 -0.695152 3.999996 0.000000 -0.000000 0.039853 -0.130747 -0.783961 -0.000000 0.000000 -0.000000 
0.000000 0.000000 0.000000 -0.411811 0.954132 5.920499 4.000001 0.000000 -0.000000 -0.145237 0.703614 4.265315 4.000002 -0.000000 0.000000 -0.733025 1.188282 7.412637 4.000000 -0.000000 0.000000 -0.202090 1.207597 7.325832 4.000000 -0.000001 -0.000000 -0.008080 0.085233 0.512937 3.999996 0.000000 -0.000000 0.028235 -0.093909 -0.569650 3.999996 0.000001 0.000000 0.245277 -0.800564 -4.744246 3.999994 0.000002 -0.000000 0.158878 -0.408102 -2.431245 3.999998 -0.000000 0.000000 0.014860 -0.158309 -0.950428 3.999992 0.000000 -0.000000 0.051868 -0.171456 -1.027435 0.000000 -0.000000 -0.000001 
